<?xml version="1.0" encoding="utf-8"?>
<!-- Generator: Adobe Illustrator 16.0.0, SVG Export Plug-In . SVG Version: 6.00 Build 0)  -->
<!DOCTYPE svg PUBLIC "-//W3C//DTD SVG 1.1//EN" "http://www.w3.org/Graphics/SVG/1.1/DTD/svg11.dtd">
<svg version="1.1" id="Layer_1" xmlns="http://www.w3.org/2000/svg" xmlns:xlink="http://www.w3.org/1999/xlink" x="0px" y="0px"
	 width="499px" height="600px" viewBox="0 0 499 600" enable-background="new 0 0 499 600" xml:space="preserve">
<g>
	<path fill-rule="evenodd" clip-rule="evenodd" fill="#FFFFFF" d="M126.316,593.001c0,0,219.626-21.037,330.213-179.771
		c105.546-151.499-51.094-283.849-51.094-283.849s-7.525-5.549-10.881-3.312c-3.013,2.009-0.473,8.989-0.473,8.989
		s24.036,43.025,22.708,88.465c-1.067,36.512-20.202,73.298-74.748,100.294c-134.863,66.748-322.169,8.515-322.169,8.515
		L126.316,593.001z"/>
	<path fill-rule="evenodd" clip-rule="evenodd" fill="#FFFFFF" d="M22.711,316.248l200.587,30.277c0,0-35.817-71.24-48.255-141.452
		c-7.066-39.895-7.128-77.181,10.409-105.023c17.273-27.426,57.636-38.21,96.982-38.793c45.4-0.672,89.412,6.149,89.412,6.149
		s8.693-0.941,10.408-4.257c1.83-3.537-3.312-9.462-3.312-9.462S301.819,16.158,224.245,6.379
		c-59.032-7.442-115.935,6.537-153.279,34.062c-36.642,27.007-59.478,76.566-64.34,126.312
		C-0.658,241.298,22.711,316.248,22.711,316.248z"/>
	<path fill-rule="evenodd" clip-rule="evenodd" fill="#FFFFFF" d="M347.72,144.519c41.554,39.268,51.222,104.502-8.042,125.366
		c-47.877,16.856-147.489-22.847-140.033-98.874C208.403,81.694,316.635,115.145,347.72,144.519z"/>
</g>
</svg>
